<svg width="100" height="100" viewBox="0 0 100 100" xmlns="http://www.w3.org/2000/svg" xmlns:xlink="http://www.w3.org/1999/xlink"><defs><clipPath id="clip-1"><rect x="0" y="0" width="100" height="100" fill="none" stroke="none" stroke-width="1"></rect></clipPath></defs><g clip-path="url(#clip-1)" id="Frame - 1" fill="none" fill-rule="nonzero" stroke="none" stroke-width="none" stroke-linecap="butt" stroke-linejoin="miter" stroke-miterlimit="10" stroke-dasharray="" stroke-dashoffset="0" font-family="none" font-weight="none" font-size="none" text-anchor="none" style="mix-blend-mode: normal"><rect x="0" y="0" width="100" height="100" fill="none" stroke="none" stroke-width="1"></rect><path d="M7.4468,50c0,-22.7671 19.0517,-41.2234 42.5532,-41.2234c21.3797,0 39.0768,15.2742 42.0981,35.1727h-24.9853c-0.4913,-4.7395 -4.4805,-8.4346 -9.329,-8.4346c-3.2415,0 -6.099,1.6517 -7.7838,4.1629c-1.6849,-2.5112 -4.5423,-4.1629 -7.7838,-4.1629c-5.1803,0 -9.3798,4.2183 -9.3798,9.4219c0,3.4812 1.8796,6.5215 4.675,8.1527l-0.0496,0.0512l13.1312,12.5531l8.162,-8.4346h33.1406c-3.5402,19.3052 -20.9508,33.9643 -41.8956,33.9643c-23.5015,0 -42.5532,-18.4563 -42.5532,-41.2234z" fill="#5271ff" stroke="#5271ff" stroke-width="0"></path><path d="M12.2184,50c0,-20.4774 16.9154,-37.0776 37.7816,-37.0776c18.7666,0 34.3375,13.4276 37.281,31.0269h-20.1682c-0.4913,-4.7395 -4.4805,-8.4346 -9.329,-8.4346c-3.2415,0 -6.099,1.6517 -7.7838,4.1629c-1.6849,-2.5112 -4.5423,-4.1629 -7.7838,-4.1629c-5.1803,0 -9.3798,4.2183 -9.3798,9.4219c0,3.4812 1.8796,6.5215 4.675,8.1527l-0.0496,0.0512l13.1312,12.5531l8.162,-8.4346h28.3029c-3.4388,17.0019 -18.7231,29.8185 -37.0578,29.8185c-20.8662,0 -37.7816,-16.6002 -37.7816,-37.0776z" fill="#0d47a1" stroke="#0d47a1" stroke-width="0"></path><g fill="#0d47a1" stroke="#0d47a1" stroke-width="0" visibility="hidden"><polygon points="37.4618,53.1406 49.9517,40.2335 63.0829,52.7866 50.593,65.6937" data-paper-data="{&quot;rotation&quot;:43.88629}"></polygon><path d="M48.404,44.9366c0,-5.2035 4.1995,-9.4219 9.3798,-9.4219c5.1803,0 9.3798,4.2183 9.3798,9.4219c0,5.2036 -4.1995,9.4219 -9.3798,9.4219c-5.1803,0 -9.3798,-4.2183 -9.3798,-9.4219z"></path><path d="M32.8363,44.9366c0,-5.2035 4.1995,-9.4219 9.3798,-9.4219c5.1803,0 9.3798,4.2183 9.3798,9.4219c0,5.2036 -4.1995,9.4219 -9.3798,9.4219c-5.1803,0 -9.3798,-4.2183 -9.3798,-9.4219z"></path></g><path d="M18.4609,50c0,-17.4947 14.1848,-31.677 31.6827,-31.677c15.4283,0 28.2809,11.0258 31.1054,25.6264l-14.1362,0c-0.4913,-4.7395 -4.4805,-8.4346 -9.329,-8.4346c-3.2415,0 -6.099,1.6517 -7.7838,4.1629c-1.6849,-2.5112 -4.5423,-4.1629 -7.7838,-4.1629c-5.1803,0 -9.3798,4.2183 -9.3798,9.4219c0,3.4812 1.8796,6.5215 4.675,8.1527l-0.0496,0.0512l13.1312,12.5531l8.162,-8.4346l22.2356,0c-3.2821,13.9963 -15.8473,24.418 -30.8469,24.418c-17.4979,0 -31.6827,-14.1823 -31.6827,-31.677z" fill="#5271ff" stroke="#0d47a1" stroke-width="0"></path><rect x="66.3996" y="57.2713" width="22.6004" height="5.2287" fill="#5271ff" stroke="#0d47a1" stroke-width="0"></rect><rect x="67.1637" y="38.7207" width="22.6004" height="5.2287" fill="#5271ff" stroke="#0d47a1" stroke-width="0"></rect></g></svg>
